<svg version="1.1" id="Layer_1" xmlns="http://www.w3.org/2000/svg" xmlns:xlink="http://www.w3.org/1999/xlink" x="0px" y="0px"
	 width="100%" viewBox="0 0 352 352" enable-background="new 0 0 352 352" xml:space="preserve">
<path fill="#000000" opacity="1.000000" stroke="none" 
	d="
M353.000000,275.000000 
	C353.000000,276.388885 353.000000,277.777802 352.627380,279.491333 
	C344.577759,279.358459 337.005371,280.478424 329.394226,281.179260 
	C326.061005,281.486145 323.970795,282.889404 322.070648,285.536743 
	C302.875000,312.280640 278.220032,332.316376 247.945358,345.333771 
	C241.688278,348.024139 235.318069,350.451447 229.000000,353.000000 
	C222.645599,353.000000 216.291214,353.000000 209.770432,352.760986 
	C211.841049,351.918243 214.062592,351.248444 216.317352,350.720490 
	C256.462402,341.321228 288.938446,319.962585 314.461548,287.777985 
	C315.379303,286.620728 316.912018,285.530365 315.720490,282.346893 
	C277.834259,329.529724 229.817490,355.351532 169.352005,351.692078 
	C108.996315,348.039307 62.667889,318.876099 32.382561,266.565521 
	C2.170939,214.382294 2.298921,160.076080 26.190546,105.172768 
	C23.044022,107.278641 23.006382,107.278564 21.585871,110.524292 
	C6.816737,144.270248 1.605229,179.444489 9.805079,215.411041 
	C24.832674,281.325714 64.470505,325.861084 128.933655,347.688324 
	C134.895203,349.706909 141.296707,350.156738 147.000000,353.000000 
	C141.311966,353.000000 135.623917,353.000000 129.161926,352.820099 
	C127.608650,352.345673 126.840408,352.016785 126.048439,351.761505 
	C32.874615,321.725769 -18.922874,223.068207 9.310793,129.540222 
	C11.700439,121.624191 15.021156,114.041695 18.055058,105.528786 
	C11.853448,105.293068 6.420882,106.707825 1.000000,106.000000 
	C1.000000,104.611107 1.000000,103.222221 1.463633,101.356400 
	C5.755777,100.801689 9.584174,100.667732 13.412825,100.660042 
	C18.445549,100.649933 21.796284,98.907753 24.452883,94.026299 
	C59.714790,29.233158 129.594101,-6.574018 202.010910,3.617885 
	C262.263794,12.097846 306.417358,44.241547 335.603790,97.333389 
	C343.841370,112.318047 348.766388,128.539642 353.000000,145.000000 
	C353.000000,168.354233 353.000000,191.708450 352.933960,215.898346 
	C352.580505,217.508072 352.191742,218.260422 352.020630,219.059418 
	C348.025146,237.711853 340.936768,255.141235 331.339874,271.588593 
	C330.781250,272.545990 329.873962,273.475220 330.797150,275.528900 
	C337.969177,275.905182 345.502045,273.689758 353.000000,275.000000 
M272.430328,252.124146 
	C273.763245,252.128159 275.096619,252.111099 276.428986,252.139771 
	C283.012421,252.281342 283.401642,252.694412 283.337708,259.391113 
	C283.277527,265.696136 282.735626,266.304932 276.506165,266.303436 
	C260.340027,266.299530 244.173401,266.300751 228.007996,266.171844 
	C220.474030,266.111786 213.065491,265.142059 206.079681,262.015198 
	C204.269974,261.205170 202.370728,260.437836 200.546982,262.187531 
	C201.110580,264.273804 202.948456,264.920135 204.442490,265.858185 
	C220.195740,275.749237 237.626816,280.332336 255.972183,281.629028 
	C272.473419,282.795410 288.914764,281.599548 305.319824,279.627014 
	C309.986237,279.065918 313.152527,277.075073 315.736481,273.061737 
	C339.566162,236.050385 348.998871,195.780960 341.327667,152.384705 
	C325.516479,62.940300 242.692184,2.475868 154.232208,16.339985 
	C104.780945,24.090361 66.954872,49.934471 40.164017,92.082520 
	C39.238369,93.538780 37.757736,94.952133 38.561371,97.394035 
	C40.754456,97.804420 42.999554,97.462708 45.302597,97.173042 
	C56.538521,95.759789 67.814362,94.069031 79.143326,94.859169 
	C98.455521,96.206108 117.781250,95.648468 137.099045,96.011787 
	C144.929749,96.159065 152.676422,96.882637 160.162628,99.638657 
	C193.734665,111.998131 201.674927,155.274246 174.572296,178.360809 
	C170.353668,181.954315 165.232468,183.967575 159.901581,186.564941 
	C173.249191,206.806763 181.252701,229.600067 196.775940,248.082565 
	C195.233826,241.488403 195.746658,234.861282 195.717560,228.265854 
	C195.669769,217.433136 195.683228,206.600098 195.691620,195.767212 
	C195.715256,165.268890 195.732544,134.770508 195.814789,104.272324 
	C195.820740,102.062691 195.056412,99.415855 197.677399,97.978790 
	C203.280670,94.906578 209.407349,98.463333 209.404114,104.753746 
	C209.382034,147.583405 209.345230,190.413071 209.330582,233.242722 
	C209.325928,246.847687 213.901535,251.736343 227.459091,251.965088 
	C242.119736,252.212433 256.786591,252.090363 272.430328,252.124146 
M116.175682,265.511871 
	C111.331635,266.322235 109.448830,264.195312 109.737595,259.409668 
	C109.967979,255.591522 109.775635,251.747940 109.772713,247.915634 
	C109.743706,209.926880 110.076591,171.933105 109.548409,133.951294 
	C109.240112,111.781868 100.902229,99.603783 75.153572,100.061043 
	C63.126717,100.274628 51.280369,102.000519 39.351704,103.052002 
	C34.674057,103.464317 32.239334,105.328300 30.358768,109.386108 
	C15.668324,141.084610 10.790748,174.072479 16.294605,208.671127 
	C29.886333,294.112183 109.783272,355.798340 195.829651,346.470093 
	C238.948578,341.795563 274.587341,322.137512 303.113647,289.544189 
	C304.138062,288.373718 305.769318,287.435547 305.655304,285.509033 
	C304.569794,284.537872 303.399780,285.063080 302.286987,285.170990 
	C283.207550,287.021423 264.176086,288.323792 245.023651,285.407379 
	C213.599976,280.622467 188.282776,266.920929 172.949173,237.882248 
	C166.649689,225.952332 160.037689,214.179535 154.036530,202.102386 
	C148.953674,191.873322 141.126633,187.485458 129.849396,188.298706 
	C123.621483,188.747818 123.347366,188.657684 123.341331,194.812866 
	C123.320259,216.307312 123.212616,237.802734 123.397209,259.295563 
	C123.438560,264.109558 121.769653,266.110382 116.175682,265.511871 
M177.373550,147.863937 
	C178.815552,129.053772 166.815033,113.452133 149.379852,111.328690 
	C141.080139,110.317856 132.753021,110.474785 124.426010,110.338371 
	C120.859024,110.279938 119.544357,111.455658 120.628204,115.131371 
	C122.763092,122.371574 123.266106,129.848404 123.293709,137.357590 
	C123.332916,148.023819 123.408066,158.691116 123.292107,169.356064 
	C123.251717,173.070496 124.423950,174.971359 128.439499,174.837097 
	C134.432846,174.636703 140.452225,174.984680 146.430588,174.615036 
	C158.724869,173.854858 175.123825,165.280807 177.373550,147.863937 
M306.451782,68.079628 
	C330.628571,96.457352 344.829224,129.222168 347.907776,166.323517 
	C351.014862,203.769196 342.456299,238.751633 322.849121,270.930511 
	C321.749084,272.735931 319.914581,274.343353 320.817230,276.986176 
	C331.525787,263.819305 338.441315,248.682526 343.342957,232.619293 
	C355.660278,192.253922 354.077148,152.326553 337.796112,113.384209 
	C307.359009,40.582108 231.993774,-4.909117 148.091568,9.561292 
	C122.254143,14.017410 98.928894,24.606419 77.590050,39.935982 
	C54.584480,56.462894 29.536089,89.646072 29.526499,98.873489 
	C58.926949,48.683350 101.386482,17.289707 159.651566,10.892285 
	C217.790863,4.508678 266.628265,24.314478 306.451782,68.079628 
M128.383911,105.493385 
	C131.354507,102.698929 128.831772,102.303772 126.850548,101.389946 
	C125.705185,103.358841 126.427536,104.462242 128.383911,105.493385 
M141.357178,102.711487 
	C141.621445,104.555977 142.296860,105.858337 144.796738,105.124283 
	C144.683319,102.889305 144.360352,101.179474 141.357178,102.711487 
z"/>
</svg>