<?xml version="1.0" standalone="no"?>
<!DOCTYPE svg PUBLIC "-//W3C//DTD SVG 20010904//EN"
 "http://www.w3.org/TR/2001/REC-SVG-20010904/DTD/svg10.dtd">
<svg version="1.0" xmlns="http://www.w3.org/2000/svg"
 width="1024.000000pt" height="1024.000000pt" viewBox="0 0 1024.000000 1024.000000"
 preserveAspectRatio="xMidYMid meet">

<g transform="translate(0.000000,1024.000000) scale(0.100000,-0.100000)"
fill="#000000" stroke="none">
<path d="M4865 7035 c-536 -87 -987 -399 -1259 -870 l-52 -90 -75 -8 c-159
-16 -403 9 -559 59 -45 14 -84 23 -87 20 -14 -14 10 -35 56 -51 125 -41 234
-57 439 -62 111 -3 202 -6 202 -7 0 -1 -16 -41 -35 -89 -225 -558 -161 -1162
179 -1672 111 -167 314 -371 476 -478 320 -211 668 -309 1045 -294 77 3 181
13 230 22 267 46 538 165 763 335 101 76 265 241 339 341 57 77 58 78 113 86
30 4 150 8 265 8 220 -1 311 -12 435 -56 67 -24 70 -24 70 0 0 21 -43 39 -160
65 -147 34 -450 43 -604 19 l-40 -6 20 29 c66 95 159 304 198 442 147 519 59
1059 -247 1512 -103 151 -314 361 -467 463 -193 128 -408 219 -635 267 -132
29 -473 37 -610 15z m555 -40 c377 -67 734 -266 992 -553 471 -526 581 -1287
278 -1917 -67 -138 -124 -225 -150 -225 -11 0 -20 2 -20 3 0 2 24 44 54 93
291 484 322 1084 82 1598 -137 293 -332 521 -601 701 -577 387 -1335 375
-1900 -30 -179 -129 -296 -252 -432 -457 -62 -94 -90 -128 -105 -128 -19 0
-18 4 12 58 273 485 750 803 1310 872 105 13 367 4 480 -15z m35 -85 c582
-125 1053 -545 1241 -1105 67 -202 78 -274 79 -525 0 -179 -4 -242 -18 -310
-25 -119 -71 -266 -116 -370 -35 -80 -130 -248 -165 -294 -39 -49 -537 -69
-731 -29 -160 34 -326 102 -415 172 l-24 19 34 7 c26 4 49 0 85 -16 47 -22 67
-24 385 -31 380 -9 363 -12 358 72 l-3 45 -315 5 c-276 4 -319 7 -347 23 -72
39 -67 -10 -73 797 l-5 725 -57 3 -58 3 -1 -368 c-3 -898 1 -1105 20 -1144 15
-32 15 -36 2 -27 -47 30 -126 154 -261 408 -51 96 -105 191 -120 211 l-28 36
54 23 c173 71 274 239 261 436 -4 75 -10 97 -46 169 -66 133 -166 212 -316
249 -94 23 -878 31 -1045 11 -69 -8 -128 -15 -133 -15 -10 0 64 117 122 195
242 324 593 547 983 624 152 30 147 29 358 26 152 -3 217 -8 295 -25z m-1197
-845 c69 -21 130 -81 155 -150 32 -91 37 -212 37 -853 l0 -633 58 3 57 3 3
383 2 382 78 0 c157 0 174 -15 311 -277 149 -286 177 -329 276 -428 101 -101
196 -160 328 -206 156 -53 232 -64 467 -64 118 0 255 4 303 8 l88 8 -12 -23
c-22 -43 -234 -243 -329 -311 -114 -80 -319 -184 -449 -227 -178 -57 -295 -75
-501 -74 -218 0 -325 16 -505 75 -365 121 -653 340 -870 664 -286 426 -357
952 -196 1443 38 114 104 262 118 262 6 0 181 20 293 34 70 8 236 -2 288 -19z
m234 -2 c18 -16 25 -43 11 -43 -10 0 -53 42 -53 52 0 13 22 9 42 -9z m73 -13
c15 -28 15 -30 -4 -30 -19 0 -41 26 -41 49 0 23 30 10 45 -19z m80 0 c20 -38
19 -40 -10 -40 -17 0 -29 9 -40 30 -20 38 -19 40 10 40 17 0 29 -9 40 -30z
m69 8 c21 -30 20 -48 -3 -48 -18 0 -51 38 -51 60 0 19 39 10 54 -12z m62 14
c11 -7 34 -45 34 -56 0 -3 -11 -6 -25 -6 -17 0 -29 9 -40 30 -8 16 -15 31 -15
35 0 7 33 6 46 -3z m-382 -10 c2 -4 1 -13 -3 -20 -5 -9 -12 -7 -26 8 -18 19
-18 20 3 20 11 0 23 -4 26 -8z m480 -24 c12 -33 7 -39 -21 -32 -12 4 -26 19
-32 36 -10 28 -9 29 17 26 19 -2 29 -11 36 -30z m516 22 c0 -9 -31 -30 -44
-30 -3 0 -6 9 -6 20 0 15 7 20 25 20 14 0 25 -4 25 -10z m-949 -59 c-16 -30
-31 -26 -31 7 0 36 10 46 28 28 11 -11 11 -18 3 -35z m483 43 c16 -6 23 -64 9
-64 -17 0 -30 16 -35 43 -5 28 -1 31 26 21z m-1304 -8 c0 -2 -13 -32 -29 -67
-91 -201 -138 -407 -148 -640 -7 -186 5 -301 52 -484 162 -632 658 -1108 1299
-1247 88 -19 131 -22 331 -22 201 -1 243 2 331 22 376 82 699 274 949 562 54
63 93 100 106 100 10 0 19 -3 19 -6 0 -15 -119 -154 -197 -231 -411 -405 -989
-577 -1555 -463 -629 128 -1153 628 -1323 1260 -45 169 -58 295 -52 500 6 204
24 307 81 483 51 156 91 237 115 237 12 0 21 -2 21 -4z m1374 -19 c13 -9 16
-20 11 -40 -12 -45 -38 -28 -41 26 -2 30 4 33 30 14z m406 -15 c0 -15 -36 -42
-55 -42 -13 0 -3 40 13 49 26 16 42 13 42 -7z m-910 -42 c0 -4 -9 -15 -21 -26
-29 -26 -43 -1 -22 40 15 28 16 29 29 11 8 -10 14 -22 14 -25z m560 15 c7 -8
10 -25 6 -40 -9 -36 -36 -21 -36 21 0 37 10 43 30 19z m-123 -29 c72 -33 134
-94 166 -164 18 -38 22 -66 22 -142 0 -109 -15 -148 -82 -212 -81 -77 -182
-108 -360 -108 l-103 0 0 158 c-1 215 -15 408 -34 460 l-16 44 173 -4 c164 -3
175 -5 234 -32z m175 -51 c-6 -14 -16 -25 -22 -25 -11 0 -13 39 -4 65 6 15 8
15 22 1 13 -12 13 -20 4 -41z m298 41 c0 -14 -36 -46 -52 -46 -15 0 -8 39 10
49 25 15 42 13 42 -3z m-887 -26 c4 -14 -3 -26 -24 -41 l-29 -20 0 22 c0 22
26 59 40 59 4 0 10 -9 13 -20z m621 -75 c-15 -23 -18 -25 -27 -10 -6 12 -5 25
4 41 11 21 15 23 27 10 12 -12 12 -17 -4 -41z m259 31 c5 -12 -30 -46 -48 -46
-13 0 -3 40 13 49 23 14 29 13 35 -3z m-865 -28 c2 -9 -11 -26 -27 -38 l-31
-21 0 22 c0 44 50 76 58 37z m646 -24 c6 -17 -19 -54 -36 -54 -12 0 -10 44 4
58 16 16 25 15 32 -4z m226 -19 c0 -8 -13 -21 -30 -30 -28 -15 -30 -14 -30 4
0 20 24 40 48 41 6 0 12 -7 12 -15z m-887 -60 c-25 -20 -33 -18 -33 4 0 11 10
27 23 36 21 15 22 14 25 -6 2 -11 -4 -27 -15 -34z m687 8 c0 -15 -27 -42 -42
-43 -14 0 -8 33 8 51 18 20 34 16 34 -8z m200 -19 c0 -12 -36 -34 -56 -34 -13
0 -1 31 18 44 23 17 38 13 38 -10z m-887 -59 c-25 -19 -33 -18 -33 4 0 10 10
25 23 34 20 14 22 13 25 -5 2 -11 -5 -26 -15 -33z m697 12 c0 -20 -32 -47 -55
-47 -12 0 -3 26 17 47 27 29 38 29 38 0z m190 -11 c0 -14 -36 -46 -52 -46 -15
0 -8 39 10 49 25 15 42 13 42 -3z m-870 -36 c0 -18 -36 -47 -46 -37 -4 4 34
57 42 57 2 0 4 -9 4 -20z m678 -45 c-2 -2 -15 -6 -31 -10 -37 -10 -37 19 1 39
25 13 27 13 30 -6 2 -11 2 -21 0 -23z m182 5 c0 -26 -43 -45 -49 -22 -3 15 23
42 41 42 4 0 8 -9 8 -20z m-860 -23 c0 -8 -11 -19 -25 -25 -20 -9 -25 -9 -25
3 0 8 8 19 18 24 23 14 32 13 32 -2z m670 -19 c0 -22 -14 -36 -43 -43 -39 -10
-34 19 8 43 26 15 35 15 35 0z m190 -21 c0 -16 -9 -28 -25 -35 -22 -10 -25 -9
-25 8 0 10 10 26 22 34 28 20 28 20 28 -7z m-860 -15 c0 -11 -11 -24 -25 -30
-20 -9 -25 -9 -25 3 0 7 10 21 22 29 28 20 28 20 28 -2z m638 -47 c-12 -26
-20 -29 -51 -16 -16 6 -16 9 -5 18 11 9 34 18 60 22 4 0 2 -10 -4 -24z m201
-36 c-22 -16 -24 -17 -28 -2 -2 9 7 24 20 34 22 16 24 17 28 2 2 -9 -7 -24
-20 -34z m-860 -12 c-23 -18 -24 -18 -28 -2 -2 11 7 26 20 36 22 17 24 17 28
2 2 -10 -7 -26 -20 -36z m628 -2 c2 -1 -3 -9 -10 -19 -10 -14 -17 -15 -41 -6
-23 8 -26 13 -16 25 10 12 52 12 67 0z m237 -52 c-24 -18 -34 -16 -34 5 0 25
43 46 49 24 2 -9 -5 -22 -15 -29z m-844 14 c0 -16 -9 -28 -25 -35 -21 -10 -25
-9 -25 5 0 18 28 53 42 53 4 0 8 -11 8 -23z m559 -13 c2 -2 -2 -10 -9 -18 -11
-14 -15 -14 -42 0 -24 13 -28 18 -17 25 12 8 58 4 68 -7z m-70 -33 c24 -18 24
-19 4 -29 -17 -9 -24 -7 -42 12 -17 18 -19 25 -9 29 20 8 21 8 47 -12z m371
-10 c0 -10 -11 -26 -25 -35 -24 -16 -25 -16 -25 8 0 14 8 30 18 35 25 15 32
13 32 -8z m-877 -46 c-25 -20 -33 -18 -33 4 0 11 10 27 23 36 21 15 22 14 25
-6 2 -11 -4 -27 -15 -34z m446 24 c26 -21 26 -24 -5 -33 -23 -7 -60 25 -49 43
9 16 27 13 54 -10z m-69 -18 c14 -27 13 -31 -7 -31 -18 0 -53 28 -53 42 0 17
50 8 60 -11z m-286 -13 c22 -31 20 -38 -9 -38 -21 0 -25 5 -25 30 0 36 13 38
34 8z m79 -2 c15 -22 15 -25 1 -30 -27 -10 -33 -7 -49 24 -15 29 -15 30 9 30
14 0 30 -10 39 -24z m68 2 c23 -29 24 -38 1 -38 -18 0 -40 19 -56 48 -13 22
35 13 55 -10z m65 5 c19 -26 17 -35 -7 -31 -12 2 -28 13 -37 26 -14 21 -13 22
8 22 13 0 29 -8 36 -17z m574 -26 c0 -16 -9 -28 -25 -35 -23 -11 -25 -10 -25
13 0 21 21 44 43 45 4 0 7 -11 7 -23z m-882 -48 c-22 -18 -23 -18 -26 4 -3 13
5 28 20 40 23 19 23 19 26 -4 3 -15 -4 -29 -20 -40z m372 1 c0 -5 -11 -10 -24
-10 -14 0 -28 5 -31 10 -4 6 7 10 24 10 17 0 31 -4 31 -10z m510 -22 c0 -15
-9 -27 -25 -35 -22 -10 -25 -9 -25 9 0 19 25 47 43 48 4 0 7 -10 7 -22z m-877
-43 c-23 -18 -33 -18 -33 -1 0 8 10 22 23 31 20 14 22 14 25 0 2 -9 -5 -23
-15 -30z m411 26 c16 -18 16 -19 -13 -23 -28 -4 -51 6 -51 23 0 6 15 13 41 18
3 0 14 -7 23 -18z m466 -54 c0 -16 -9 -28 -25 -35 -23 -11 -25 -9 -25 12 0 19
20 38 48 45 1 1 2 -10 2 -22z m-428 -4 c26 -23 22 -33 -11 -33 -35 0 -62 27
-40 41 20 13 30 11 51 -8z m-432 -13 c0 -16 -26 -40 -44 -40 -14 0 -4 40 12
49 25 15 32 13 32 -9z m860 -53 c0 -16 -9 -28 -25 -35 -23 -11 -25 -9 -25 12
0 19 20 38 48 45 1 1 2 -10 2 -22z m-390 -7 c10 -18 8 -20 -19 -20 -20 0 -34
7 -41 20 -10 18 -8 20 19 20 20 0 34 -7 41 -20z m-470 -8 c0 -11 -11 -24 -25
-30 -22 -10 -25 -9 -25 8 0 10 8 24 18 29 25 15 32 13 32 -7z m500 -51 c14
-28 13 -31 -13 -31 -25 0 -47 17 -47 37 0 20 48 15 60 -6z m343 -26 c-25 -19
-33 -18 -33 3 0 24 43 46 48 25 2 -8 -5 -21 -15 -28z m-864 -16 c-22 -17 -24
-17 -28 -2 -2 10 7 26 20 36 23 18 24 18 28 2 2 -11 -7 -26 -20 -36z m561 -28
c15 -28 13 -31 -20 -31 -19 0 -33 7 -40 19 -15 28 -13 31 20 31 19 0 33 -7 40
-19z m320 1 c0 -11 -11 -24 -25 -30 -22 -10 -25 -9 -25 6 0 21 19 42 37 42 7
0 13 -8 13 -18z m-860 -10 c0 -11 -11 -24 -25 -30 -21 -10 -25 -9 -25 5 0 15
27 42 43 43 4 0 7 -8 7 -18z m843 -87 c-25 -20 -33 -18 -33 4 0 11 10 27 23
36 21 15 22 14 25 -6 2 -11 -4 -27 -15 -34z m-843 22 c0 -16 -9 -28 -25 -35
-22 -10 -25 -9 -25 8 0 10 10 26 22 34 28 20 28 20 28 -7z m578 2 c12 -19 11
-20 -25 -17 -27 2 -39 8 -41 21 -5 26 49 23 66 -4z m36 -64 l16 -25 -34 0
c-25 0 -38 6 -46 19 -7 14 -6 21 3 24 27 11 45 6 61 -18z m246 2 c0 -16 -9
-28 -25 -35 -23 -11 -25 -9 -25 12 0 19 20 38 48 45 1 1 2 -10 2 -22z m-860
-10 c0 -16 -9 -28 -25 -35 -23 -11 -25 -9 -25 12 0 19 20 38 48 45 1 1 2 -10
2 -22z m648 -49 c23 -23 14 -39 -20 -33 -30 6 -47 19 -48 38 0 12 55 8 68 -5z
m195 -33 c-25 -19 -33 -18 -33 3 0 24 43 46 48 25 2 -8 -5 -21 -15 -28z m-859
-22 c-25 -18 -34 -16 -34 6 0 11 10 27 23 36 21 15 22 14 25 -7 2 -13 -4 -27
-14 -35z m886 -3 c0 -5 -9 -24 -19 -41 -18 -30 -19 -30 -26 -9 -4 14 -1 28 11
41 19 21 34 25 34 9z m-177 -14 c4 -9 -3 -16 -16 -20 -33 -9 -35 -8 -47 14
-10 18 -8 20 24 20 20 0 36 -6 39 -14z m-693 -26 c0 -16 -26 -40 -44 -40 -14
0 -4 40 12 49 25 15 32 13 32 -9z m889 -22 c0 -13 -4 -31 -8 -41 -6 -17 -8
-18 -20 -3 -11 13 -11 22 -3 41 14 31 32 32 31 3z m-157 -5 c26 -23 22 -33
-10 -33 -33 0 -72 34 -50 43 24 10 41 7 60 -10z m202 -29 c9 -23 7 -64 -3 -64
-18 0 -33 30 -27 55 7 28 21 33 30 9z m-934 -12 c0 -11 -11 -24 -25 -30 -22
-10 -25 -9 -25 6 0 21 19 42 37 42 7 0 13 -8 13 -18z m792 -16 c10 -7 15 -16
11 -19 -12 -12 -60 -7 -72 7 -10 12 -8 15 11 19 13 2 25 5 28 5 3 1 13 -5 22
-12z m195 2 c6 -7 13 -23 16 -36 5 -19 2 -23 -16 -20 -17 2 -23 11 -25 36 -3
33 8 42 25 20z m77 -30 c22 -31 20 -38 -8 -38 -23 0 -36 16 -36 46 0 22 27 17
44 -8z m78 -8 c17 -30 17 -30 -7 -30 -17 0 -29 9 -40 30 -15 29 -15 30 7 30
15 0 29 -11 40 -30z m62 8 c21 -29 20 -38 -2 -38 -10 0 -26 14 -35 30 -18 29
-18 30 2 30 11 0 27 -10 35 -22z m81 -8 c15 -29 15 -30 -9 -30 -18 0 -30 9
-41 30 -15 29 -15 30 9 30 18 0 30 -9 41 -30z m59 8 c21 -29 20 -38 -1 -38
-10 0 -26 14 -35 30 -16 29 -16 30 2 30 10 0 26 -10 34 -22z m79 -8 l18 -30
-25 0 c-18 0 -30 9 -41 30 -15 29 -15 30 8 30 15 0 29 -10 40 -30z m61 8 c21
-30 20 -38 -4 -38 -18 0 -40 26 -40 49 0 19 28 12 44 -11z m76 -5 l22 -28 -23
-3 c-23 -4 -49 20 -49 45 0 22 27 14 50 -14z m50 0 c-1 -27 -1 -27 -15 -9 -19
25 -19 36 0 36 10 0 15 -10 15 -27z m-1610 -13 c0 -13 -7 -20 -20 -20 -25 0
-26 16 -2 29 23 14 22 14 22 -9z"/>
</g>
</svg>
